{
	"asset":{
		"generator":"Khronos glTF Blender I/O v3.6.27",
		"version":"2.0"
	},
	"scene":0,
	"scenes":[
		{
			"name":"Scene",
			"nodes":[
				0
			]
		}
	],
	"nodes":[
		{
			"mesh":0,
			"name":"Curve",
			"rotation":[
				0.7071068286895752,
				0,
				0,
				0.7071068286895752
			],
			"scale":[
				1000,
				1000,
				1000
			]
		}
	],
	"materials":[
		{
			"doubleSided":true,
			"name":"Material.001",
			"pbrMetallicRoughness":{
				"baseColorFactor":[
					0.800000011920929,
					0.800000011920929,
					0.800000011920929,
					1
				]
			}
		}
	],
	"meshes":[
		{
			"name":"Curve.008",
			"primitives":[
				{
					"attributes":{
						"POSITION":0,
						"NORMAL":1
					},
					"indices":2,
					"material":0
				}
			]
		}
	],
	"accessors":[
		{
			"bufferView":0,
			"componentType":5126,
			"count":757275,
			"max":[
				0.015611328184604645,
				0.001499965786933899,
				0.016111480072140694
			],
			"min":[
				-0.01804989017546177,
				-0.0015000011771917343,
				-0.017540128901600838
			],
			"type":"VEC3"
		},
		{
			"bufferView":1,
			"componentType":5126,
			"count":757275,
			"type":"VEC3"
		},
		{
			"bufferView":2,
			"componentType":5125,
			"count":4543638,
			"type":"SCALAR"
		}
	],
	"bufferViews":[
		{
			"buffer":0,
			"byteLength":9087300,
			"byteOffset":0,
			"target":34962
		},
		{
			"buffer":0,
			"byteLength":9087300,
			"byteOffset":9087300,
			"target":34962
		},
		{
			"buffer":0,
			"byteLength":18174552,
			"byteOffset":18174600,
			"target":34963
		}
	],
	"buffers":[
		{
			"byteLength":36349152,
			"uri":"eldorgltf.bin"
		}
	]
}
